#!OML:ASF H:\Terrain\Patient Classification 1\PLAYGROUND\JustinFriday\JustinFriday.ASF
:FULLY-SPECIFIED
:DEGREES
1531
root -9.68887 27.7944 -8.62638 305.345 86.3231 9.96319
lowerback 30.9242 -0.0774387 0.794726
upperback 13.8541 1.61823 -0.69228
thorax -1.20469 1.6057 -1.72877
lowerneck 6.74733 -5.81905 -3.42993
upperneck 27.2778 -7.23865 2.12395
head 7.53951 -3.09744 1.04847
rclavicle 1.98785e-015 1.59028e-015
rhumerus 34.9516 0.0563911 -58.1468
rradius 98.8004
rwrist 3.45833
rhand 14.9561 -39.0723
rfingers 7.12502
rthumb 39.8103 -64.3553
lclavicle 1.98785e-015 1.59028e-015
lhumerus 31.5076 -5.55558 55.8215
lradius 101.199
lwrist -18.7947
lhand -3.36705 1.30755
lfingers 7.12502
lthumb 22.3617 30.0334
rfemur -7.97168 -4.78259 18.2522
rtibia 65.8032
rfoot 15.916 -12.0467
rtoes 16.2473
lfemur -9.23811 13.3275 8.54309
ltibia 109.807
lfoot 11.2463 -15.2647
ltoes -7.12466
1532
root -9.69793 27.7889 -8.63576 307.836 86.6366 12.5533
lowerback 30.9222 -0.019113 0.00352192
upperback 13.9857 1.54065 0.600801
thorax -1.11164 1.4827 0.177855
lowerneck 5.8952 -5.11317 -10.0359
upperneck 28.4645 -6.69865 4.70525
head 8.44554 -3.27279 3.03934
rclavicle -2.76124e-014 -5.26779e-014
rhumerus 35.8704 0.582047 -55.5511
rradius 98.3945
rwrist 2.50353
rhand 15.8982 -35.7985
rfingers 7.12502
rthumb 40.6964 -60.8106
lclavicle -2.76124e-014 -5.26779e-014
lhumerus 31.1735 -4.28619 58.1319
lradius 100.777
lwrist -18.1181
lhand -2.69154 2.74963
lfingers 7.12502
lthumb 23.01 31.3961
rfemur -8.04287 -4.76526 17.9505
rtibia 64.3782
rfoot 14.2893 -14.1844
rtoes 24.124
lfemur -9.27964 13.2899 8.15289
ltibia 110.411
lfoot 13.2507 -13.6213
ltoes 1.76527
1533
root -9.70774 27.7878 -8.64079 307.506 86.633 12.4301
lowerback 30.8613 0.0405613 0.0616102
upperback 14.0766 1.64564 0.579299
thorax -0.979287 1.54701 0.0930777
lowerneck 7.44171 -4.70556 -5.65854
upperneck 26.6508 -5.64496 1.96384
head 7.23486 -2.55951 1.46256
rclavicle -2.39039e-014 -1.71949e-014
rhumerus 35.9562 -0.0153978 -55.8571
rradius 98.1901
rwrist 1.81402
rhand 17.8846 -32.184
rfingers 7.12502
rthumb 42.5596 -56.5837
lclavicle -2.39039e-014 -1.71949e-014
lhumerus 32.1197 -3.65186 58.1936
lradius 99.8095
lwrist -15.668
lhand 0.143921 0.720173
lfingers 7.12502
lthumb 25.7282 29.0011
rfemur -7.9447 -4.72015 18.0626
rtibia 62.8938
rfoot 12.7788 -15.8088
rtoes 31.2005
lfemur -9.50806 12.6936 7.85878
ltibia 110.441
lfoot 16.815 -9.99044
ltoes 15.3166
1534
root -9.70766 27.7679 -8.63404 309.588 86.3985 14.8438
lowerback 30.8259 0.0638307 0.468408
upperback 14.2244 1.79494 0.225793
thorax -0.772497 1.67141 -0.568484
lowerneck 6.71229 -5.17064 -5.71445
upperneck 27.1071 -6.27159 1.91431
head 7.53958 -2.87328 1.40678
rclavicle -5.81445e-015 -7.35503e-015
rhumerus 35.4751 0.16488 -55.5404
rradius 98.4695
rwrist 1.37273
rhand 17.1229 -32.1004
rfingers 7.12502
rthumb 41.846 -56.7418
lclavicle -5.81445e-015 -7.35503e-015
lhumerus 33.1534 -4.32761 56.9986
lradius 99.1529
lwrist -16.5062
lhand 0.0945093 4.92689
lfingers 7.12502
lthumb 25.6809 33.2146
rfemur -7.85933 -4.24556 18.3935
rtibia 61.4852
rfoot 15.349 -12.5898
rtoes 22.2822
lfemur -8.74574 13.0895 8.60224
ltibia 110.723
lfoot 18.1187 -9.69994
ltoes 18.3894
1535
root -9.71628 27.7629 -8.62915 313.023 86.389 18.6013
lowerback 30.9203 0.267131 -0.280016
upperback 14.2432 1.856 0.385517
thorax -0.813044 1.65652 0.0154397
lowerneck 6.01736 -4.79442 -8.16955
upperneck 28.5084 -6.08152 3.92343
head 8.28763 -2.83888 2.49965
rclavicle 1.51076e-014 -3.27995e-015
rhumerus 35.0585 -0.309942 -54.0524
rradius 99.1734
rwrist 0.583252
rhand 15.3873 -36.8608
rfingers 7.12502
rthumb 40.2161 -62.0213
lclavicle 1.51076e-014 -3.27995e-015
lhumerus 33.5936 -2.77183 57.8218
lradius 97.6285
lwrist -14.4866
lhand 4.39716 0.932408
lfingers 7.12502
lthumb 29.7948 28.5566
rfemur -7.76202 -3.67209 18.4205
rtibia 60.0813
rfoot 13.6845 -14.6777
rtoes 28.921
lfemur -8.30681 13.9445 8.98495
ltibia 111.286
lfoot 17.5634 -12.2949
ltoes 10.5431
1536
root -9.72653 27.769 -8.62829 308.179 86.4061 14.0326
lowerback 30.9524 0.258634 0.0113776
upperback 14.2139 1.9209 0.1951
thorax -0.847403 1.71369 -0.382584
lowerneck 6.53812 -5.10317 -5.8389
upperneck 27.8341 -6.34005 2.84932
head 7.85296 -2.82361 1.73516
rclavicle -2.88238e-015 -1.12313e-013
rhumerus 34.7923 0.0882898 -56.203
rradius 98.2527
rwrist 1.45319
rhand 15.6349 -36.9711
rfingers 7.12502
rthumb 40.4489 -62.0601
lclavicle -2.88238e-015 -1.12313e-013
lhumerus 34.1638 -3.35212 57.2202
lradius 96.6188
lwrist -15.5493
lhand 5.6147 0.977854
lfingers 7.12502
lthumb 30.9561 28.3877
rfemur -7.56698 -3.65345 18.6961
rtibia 58.6967
rfoot 14.1951 -13.9795
rtoes 25.4152
lfemur -8.2345 13.5739 9.17761
ltibia 111.556
lfoot 18.4656 -12.7805
ltoes 8.79095
1537
root -9.73281 27.7637 -8.62625 304.221 86.4262 10.3961
lowerback 30.9139 0.227231 -0.567516
upperback 14.4883 1.77864 0.943774
thorax -0.55088 1.59437 0.826405
lowerneck 6.32366 -5.28017 -6.76236
upperneck 27.0282 -6.36147 1.56865
head 7.6181 -3.0565 1.44951
rclavicle 1.03617e-014 -9.39258e-015
rhumerus 35.5717 0.800556 -55.6405
rradius 97.7768
rwrist 2.73181
rhand 14.682 -37.5079
rfingers 7.12502
rthumb 39.5522 -62.8675
lclavicle 1.03617e-014 -9.39258e-015
lhumerus 34.3691 -1.86051 58.7616
lradius 95.2211
lwrist -14.4848
lhand 7.38461 2.55846
lfingers 7.12502
lthumb 32.6417 29.6336
rfemur -7.33068 -3.89772 18.9589
rtibia 57.3165
rfoot 15.2186 -12.5388
rtoes 19.0133
lfemur -8.37437 13.5763 9.15805
ltibia 111.676
lfoot 17.3571 -16.493
ltoes 4.64552
1538
root -9.736 27.7455 -8.63462 305.489 86.5059 11.9899
lowerback 31.0852 0.238249 0.173636
upperback 14.2731 1.95055 -0.00625633
thorax -0.824703 1.75591 -0.708312
lowerneck 7.56357 -5.93253 -3.79044
upperneck 25.9248 -7.24544 1.12548
head 6.9281 -3.24965 0.81052
rclavicle 7.7526e-015 -4.94974e-014
rhumerus 34.1509 -0.236617 -56.5938
rradius 97.9588
rwrist 1.19095
rhand 15.0732 -35.1071
rfingers 7.12502
rthumb 39.9206 -60.3571
lclavicle 7.7526e-015 -4.94974e-014
lhumerus 35.6559 -2.75189 57.5774
lradius 93.8153
lwrist -12.8916
lhand 10.2947 2.98351
lfingers 7.12502
lthumb 35.4058 29.4438
rfemur -7.20318 -3.8556 18.9459
rtibia 55.9655
rfoot 14.6717 -12.8547
rtoes 19.0383
lfemur -7.97168 13.4588 9.01958
ltibia 111.711
lfoot 18.94 -16.1892
ltoes -3.15168
1539
root -9.74583 27.7444 -8.64551 308.862 86.7703 15.6476
lowerback 30.9902 0.26883 -0.332892
upperback 14.3526 1.84989 -0.107768
thorax -0.699595 1.68614 -0.494237
lowerneck 8.70379 -5.69715 -3.08129
upperneck 24.1003 -6.8353 0.331213
head 6.0739 -3.08422 0.500364
rclavicle 1.61016e-014 1.47101e-014
rhumerus 34.6227 0.194021 -57.4068
rradius 97.0077
rwrist 2.27904
rhand 15.1954 -35.0959
rfingers 7.12502
rthumb 40.0355 -60.3112
lclavicle 1.61016e-014 1.47101e-014
lhumerus 36.3934 -2.00763 57.8347
lradius 92.3777
lwrist -10.8259
lhand 13.3902 3.87237
lfingers 7.12502
lthumb 38.3343 29.5799
rfemur -7.02283 -3.70799 18.5578
rtibia 54.5829
rfoot 13.0351 -14.3489
rtoes 24.7848
lfemur -7.82231 13.2838 8.26439
ltibia 111.661
lfoot 21.4098 -13.2879
ltoes 19.5015
1540
root -9.75272 27.734 -8.64412 307.84 86.6768 14.7977
lowerback 30.8473 0.419111 -0.394701
upperback 14.5046 2.0665 0.428223
thorax -0.484318 1.77973 0.0758613
lowerneck 8.31945 -5.78067 -4.74171
upperneck 24.4256 -7.02053 0.535406
head 6.32439 -3.30318 0.816801
rclavicle 4.67144e-015 1.03368e-014
rhumerus 34.7049 0.697579 -55.3296
rradius 96.6604
rwrist 2.34737
rhand 14.2915 -36.9873
rfingers 7.12502
rthumb 39.1843 -62.4542
lclavicle 4.67144e-015 1.03368e-014
lhumerus 37.3059 -1.80689 58.916
lradius 90.8311
lwrist -10.4327
lhand 17.6331 0.2833
lfingers 7.12502
lthumb 42.3241 24.7638
rfemur -7.02175 -3.47286 18.7753
rtibia 53.2548
rfoot 12.2193 -15.3317
rtoes 28.4292
lfemur -7.73063 13.4472 8.47926
ltibia 111.592
lfoot 22.977 -11.9226
ltoes 22.91
